<svg id="visual" viewBox="0 0 900 600" width="900" height="600" xmlns="http://www.w3.org/2000/svg" xmlns:xlink="http://www.w3.org/1999/xlink" version="1.1"><g stroke-width="1" stroke-linejoin="bevel"><path d="M402 333L420 397L520 308Z" fill="#312a59" stroke="#001122"></path><path d="M420 397L517 404L520 308Z" fill="#482d64" stroke="#001122"></path><path d="M308 465L413 469L420 397Z" fill="#00101c" stroke="#001122"></path><path d="M420 397L413 469L517 404Z" fill="#1e264b" stroke="#001122"></path><path d="M589 532L596 402L517 404Z" fill="#ae266f" stroke="#001122"></path><path d="M517 404L596 402L520 308Z" fill="#ae266f" stroke="#001122"></path><path d="M596 402L617 288L520 308Z" fill="#952a72" stroke="#001122"></path><path d="M581 214L497 186L520 308Z" fill="#312a59" stroke="#001122"></path><path d="M520 308L497 186L402 333Z" fill="#0e203c" stroke="#001122"></path><path d="M396 183L298 306L402 333Z" fill="#312a59" stroke="#001122"></path><path d="M264 405L308 465L420 397Z" fill="#952a72" stroke="#001122"></path><path d="M617 288L581 214L520 308Z" fill="#00101c" stroke="#001122"></path><path d="M497 186L396 183L402 333Z" fill="#1e264b" stroke="#001122"></path><path d="M413 469L494 534L517 404Z" fill="#312a59" stroke="#001122"></path><path d="M264 405L420 397L402 333Z" fill="#1e264b" stroke="#001122"></path><path d="M413 469L366 600L494 534Z" fill="#7b2d71" stroke="#001122"></path><path d="M298 306L264 405L402 333Z" fill="#952a72" stroke="#001122"></path><path d="M494 534L589 532L517 404Z" fill="#ae266f" stroke="#001122"></path><path d="M722 423L716 280L617 288Z" fill="#482d64" stroke="#001122"></path><path d="M298 306L226 382L264 405Z" fill="#c62368" stroke="#001122"></path><path d="M264 405L170 465L308 465Z" fill="#612e6c" stroke="#001122"></path><path d="M160 326L226 382L298 306Z" fill="#00101c" stroke="#001122"></path><path d="M396 183L267 188L298 306Z" fill="#312a59" stroke="#001122"></path><path d="M722 423L617 288L596 402Z" fill="#00101c" stroke="#001122"></path><path d="M617 288L723 189L581 214Z" fill="#952a72" stroke="#001122"></path><path d="M366 600L534 600L494 534Z" fill="#0e203c" stroke="#001122"></path><path d="M494 534L534 600L589 532Z" fill="#1e264b" stroke="#001122"></path><path d="M731 514L722 423L589 532Z" fill="#1e264b" stroke="#001122"></path><path d="M589 532L722 423L596 402Z" fill="#7b2d71" stroke="#001122"></path><path d="M518 78L360 105L396 183Z" fill="#0e203c" stroke="#001122"></path><path d="M396 183L360 105L267 188Z" fill="#1e264b" stroke="#001122"></path><path d="M518 78L396 183L497 186Z" fill="#1e264b" stroke="#001122"></path><path d="M602 110L497 186L581 214Z" fill="#482d64" stroke="#001122"></path><path d="M301 600L366 600L308 465Z" fill="#312a59" stroke="#001122"></path><path d="M308 465L366 600L413 469Z" fill="#312a59" stroke="#001122"></path><path d="M667 139L602 110L581 214Z" fill="#c62368" stroke="#001122"></path><path d="M602 110L518 78L497 186Z" fill="#1e264b" stroke="#001122"></path><path d="M534 600L606 600L589 532Z" fill="#ae266f" stroke="#001122"></path><path d="M723 189L667 139L581 214Z" fill="#1e264b" stroke="#001122"></path><path d="M722 423L763 335L716 280Z" fill="#00101c" stroke="#001122"></path><path d="M716 280L723 189L617 288Z" fill="#482d64" stroke="#001122"></path><path d="M197 600L301 600L308 465Z" fill="#06192c" stroke="#001122"></path><path d="M182 107L203 203L267 188Z" fill="#7b2d71" stroke="#001122"></path><path d="M267 188L203 203L298 306Z" fill="#06192c" stroke="#001122"></path><path d="M772 225L723 189L716 280Z" fill="#0e203c" stroke="#001122"></path><path d="M203 203L160 326L298 306Z" fill="#c62368" stroke="#001122"></path><path d="M226 382L170 465L264 405Z" fill="#00101c" stroke="#001122"></path><path d="M606 600L731 514L589 532Z" fill="#c62368" stroke="#001122"></path><path d="M722 423L832 389L763 335Z" fill="#00101c" stroke="#001122"></path><path d="M116 403L170 465L226 382Z" fill="#00101c" stroke="#001122"></path><path d="M763 335L772 225L716 280Z" fill="#952a72" stroke="#001122"></path><path d="M695 0L637 0L667 139Z" fill="#c62368" stroke="#001122"></path><path d="M516 0L426 0L518 78Z" fill="#312a59" stroke="#001122"></path><path d="M518 78L426 0L360 105Z" fill="#06192c" stroke="#001122"></path><path d="M360 105L261 64L267 188Z" fill="#482d64" stroke="#001122"></path><path d="M516 0L518 78L637 0Z" fill="#0e203c" stroke="#001122"></path><path d="M269 0L261 64L360 105Z" fill="#ae266f" stroke="#001122"></path><path d="M637 0L518 78L602 110Z" fill="#0e203c" stroke="#001122"></path><path d="M637 0L602 110L667 139Z" fill="#ae266f" stroke="#001122"></path><path d="M160 326L116 403L226 382Z" fill="#ae266f" stroke="#001122"></path><path d="M112 325L116 403L160 326Z" fill="#c62368" stroke="#001122"></path><path d="M112 325L160 326L88 190Z" fill="#00101c" stroke="#001122"></path><path d="M88 190L160 326L203 203Z" fill="#00101c" stroke="#001122"></path><path d="M826 506L832 389L722 423Z" fill="#612e6c" stroke="#001122"></path><path d="M763 335L900 333L772 225Z" fill="#0e203c" stroke="#001122"></path><path d="M606 600L736 600L731 514Z" fill="#06192c" stroke="#001122"></path><path d="M731 514L826 506L722 423Z" fill="#0e203c" stroke="#001122"></path><path d="M170 465L197 600L308 465Z" fill="#0e203c" stroke="#001122"></path><path d="M100 503L197 600L170 465Z" fill="#7b2d71" stroke="#001122"></path><path d="M261 64L182 107L267 188Z" fill="#952a72" stroke="#001122"></path><path d="M695 0L667 139L787 65Z" fill="#06192c" stroke="#001122"></path><path d="M775 600L826 506L731 514Z" fill="#1e264b" stroke="#001122"></path><path d="M736 600L775 600L731 514Z" fill="#952a72" stroke="#001122"></path><path d="M0 470L100 503L116 403Z" fill="#312a59" stroke="#001122"></path><path d="M116 403L100 503L170 465Z" fill="#7b2d71" stroke="#001122"></path><path d="M426 0L269 0L360 105Z" fill="#06192c" stroke="#001122"></path><path d="M261 64L205 0L182 107Z" fill="#7b2d71" stroke="#001122"></path><path d="M182 107L88 190L203 203Z" fill="#06192c" stroke="#001122"></path><path d="M112 325L0 402L116 403Z" fill="#06192c" stroke="#001122"></path><path d="M127 93L88 190L182 107Z" fill="#ae266f" stroke="#001122"></path><path d="M787 65L723 189L772 225Z" fill="#ae266f" stroke="#001122"></path><path d="M787 65L667 139L723 189Z" fill="#ae266f" stroke="#001122"></path><path d="M205 0L127 93L182 107Z" fill="#06192c" stroke="#001122"></path><path d="M900 183L787 65L772 225Z" fill="#612e6c" stroke="#001122"></path><path d="M900 435L900 333L832 389Z" fill="#312a59" stroke="#001122"></path><path d="M832 389L900 333L763 335Z" fill="#c62368" stroke="#001122"></path><path d="M269 0L205 0L261 64Z" fill="#952a72" stroke="#001122"></path><path d="M826 506L900 435L832 389Z" fill="#952a72" stroke="#001122"></path><path d="M900 476L900 435L826 506Z" fill="#ae266f" stroke="#001122"></path><path d="M900 600L900 476L826 506Z" fill="#482d64" stroke="#001122"></path><path d="M0 600L89 600L100 503Z" fill="#1e264b" stroke="#001122"></path><path d="M100 503L89 600L197 600Z" fill="#00101c" stroke="#001122"></path><path d="M900 0L772 0L787 65Z" fill="#482d64" stroke="#001122"></path><path d="M787 65L772 0L695 0Z" fill="#1e264b" stroke="#001122"></path><path d="M900 333L900 183L772 225Z" fill="#0e203c" stroke="#001122"></path><path d="M0 270L0 402L112 325Z" fill="#1e264b" stroke="#001122"></path><path d="M0 270L112 325L88 190Z" fill="#00101c" stroke="#001122"></path><path d="M0 200L0 270L88 190Z" fill="#952a72" stroke="#001122"></path><path d="M0 402L0 470L116 403Z" fill="#ae266f" stroke="#001122"></path><path d="M205 0L123 0L127 93Z" fill="#952a72" stroke="#001122"></path><path d="M0 119L0 200L88 190Z" fill="#0e203c" stroke="#001122"></path><path d="M0 119L88 190L127 93Z" fill="#ae266f" stroke="#001122"></path><path d="M775 600L900 600L826 506Z" fill="#ae266f" stroke="#001122"></path><path d="M900 183L900 77L787 65Z" fill="#ae266f" stroke="#001122"></path><path d="M0 0L0 119L127 93Z" fill="#0e203c" stroke="#001122"></path><path d="M0 470L0 600L100 503Z" fill="#06192c" stroke="#001122"></path><path d="M900 77L900 0L787 65Z" fill="#0e203c" stroke="#001122"></path><path d="M123 0L0 0L127 93Z" fill="#c62368" stroke="#001122"></path></g></svg>